# xmcd CD database file
#
# Track frame offsets:
#	150
#	16983
#	44417
#
# Disc length: 848 seconds
#
# Revision: 3
# Processed by: cddbd v1.5PL3 Copyright (c) Steve Scherf et al.
# Submitted via: CDex 1.51
#
DISCID=1c034e03
DTITLE=Dimmu Borgir - Vredesbyrd [single]
DYEAR=2004
DGENRE=Black Metal
TTITLE0=Vredesbyrd (radio edit)
TTITLE1=Progenies of the Great Apocalypse (radio edit)
TTITLE2=DATA TRACK
EXTD=YEAR: 2004
EXTT0=
EXTT1=
EXTT2=
PLAYORDER=
